# Tiled2Unity generated file. Do not modify by hand.
# Wavefront file for 'MainStreet-V2_mesh_0002.obj'

# Vertices (Count = 32)
v -784 -240 0
v -800 -240 0
v -800 -224 0
v -784 -224 0
v -768 -240 0
v -784 -240 0
v -784 -224 0
v -768 -224 0
v -656 -240 0
v -672 -240 0
v -672 -224 0
v -656 -224 0
v -112 -240 0
v -128 -240 0
v -128 -224 0
v -112 -224 0
v -96 -240 0
v -112 -240 0
v -112 -224 0
v -96 -224 0
v -368 -16 0
v -384 -16 0
v -384 0 0
v -368 0 0
v -352 -16 0
v -368 -16 0
v -368 0 0
v -352 0 0
v -240 -16 0
v -256 -16 0
v -256 0 0
v -240 0 0

# Texture cooridinates (Count = 8)
vt 0.6496815 0.7157894
vt 0.6751592 0.7157894
vt 0.6751592 0.7494737
vt 0.6496815 0.7494737
vt 0.8933121 0.8589474
vt 0.9187898 0.8589474
vt 0.9187898 0.8926316
vt 0.8933121 0.8926316

# Normal
vn 0 0 -1

# Mesh description
g MainStreet-V2_mesh_0002

# Faces
f 1/1/1 2/2/1 3/3/1 4/4/1
f 5/1/1 6/2/1 7/3/1 8/4/1
f 9/5/1 10/6/1 11/7/1 12/8/1
f 13/1/1 14/2/1 15/3/1 16/4/1
f 17/1/1 18/2/1 19/3/1 20/4/1
f 21/1/1 22/2/1 23/3/1 24/4/1
f 25/1/1 26/2/1 27/3/1 28/4/1
f 29/5/1 30/6/1 31/7/1 32/8/1

