# Tiled2Unity generated file. Do not modify by hand.
# Wavefront file for 'MainStreet_mesh_0005.obj'

# Vertices (Count = 68)
v -528 -128 0
v -544 -128 0
v -544 -112 0
v -528 -112 0
v -384 -128 0
v -400 -128 0
v -400 -112 0
v -384 -112 0
v -240 -128 0
v -256 -128 0
v -256 -112 0
v -240 -112 0
v -96 -128 0
v -112 -128 0
v -112 -112 0
v -96 -112 0
v -528 -112 0
v -544 -112 0
v -544 -96 0
v -528 -96 0
v -384 -112 0
v -400 -112 0
v -400 -96 0
v -384 -96 0
v -240 -112 0
v -256 -112 0
v -256 -96 0
v -240 -96 0
v -96 -112 0
v -112 -112 0
v -112 -96 0
v -96 -96 0
v -656 -96 0
v -672 -96 0
v -672 -80 0
v -656 -80 0
v -528 -96 0
v -544 -96 0
v -544 -80 0
v -528 -80 0
v -512 -96 0
v -528 -96 0
v -528 -80 0
v -512 -80 0
v -384 -96 0
v -400 -96 0
v -400 -80 0
v -384 -80 0
v -368 -96 0
v -384 -96 0
v -384 -80 0
v -368 -80 0
v -240 -96 0
v -256 -96 0
v -256 -80 0
v -240 -80 0
v -224 -96 0
v -240 -96 0
v -240 -80 0
v -224 -80 0
v -96 -96 0
v -112 -96 0
v -112 -80 0
v -96 -80 0
v -80 -96 0
v -96 -96 0
v -96 -80 0
v -80 -80 0

# Texture cooridinates (Count = 16)
vt 0.2165605 0.3221053
vt 0.2420382 0.3221053
vt 0.2420382 0.3557895
vt 0.2165605 0.3557895
vt 0.2165605 0.3578947
vt 0.2420382 0.3578947
vt 0.2420382 0.391579
vt 0.2165605 0.391579
vt 0.2436306 0.3578947
vt 0.2691083 0.3578947
vt 0.2691083 0.391579
vt 0.2436306 0.391579
vt 0.2707006 0.3578947
vt 0.2961783 0.3578947
vt 0.2961783 0.391579
vt 0.2707006 0.391579

# Normal
vn 0 0 -1

# Mesh description
g MainStreet_mesh_0005

# Faces
f 1/1/1 2/2/1 3/3/1 4/4/1
f 5/1/1 6/2/1 7/3/1 8/4/1
f 9/1/1 10/2/1 11/3/1 12/4/1
f 13/1/1 14/2/1 15/3/1 16/4/1
f 17/5/1 18/6/1 19/7/1 20/8/1
f 21/5/1 22/6/1 23/7/1 24/8/1
f 25/5/1 26/6/1 27/7/1 28/8/1
f 29/5/1 30/6/1 31/7/1 32/8/1
f 33/9/1 34/10/1 35/11/1 36/12/1
f 37/13/1 38/14/1 39/15/1 40/16/1
f 41/9/1 42/10/1 43/11/1 44/12/1
f 45/13/1 46/14/1 47/15/1 48/16/1
f 49/9/1 50/10/1 51/11/1 52/12/1
f 53/13/1 54/14/1 55/15/1 56/16/1
f 57/9/1 58/10/1 59/11/1 60/12/1
f 61/13/1 62/14/1 63/15/1 64/16/1
f 65/9/1 66/10/1 67/11/1 68/12/1

