# Tiled2Unity generated file. Do not modify by hand.
# Wavefront file for 'MainStreet_mesh_0004.obj'

# Vertices (Count = 204)
v -656 -192 0
v -672 -192 0
v -672 -176 0
v -656 -176 0
v -512 -192 0
v -528 -192 0
v -528 -176 0
v -512 -176 0
v 0 -192 0
v -16 -192 0
v -16 -176 0
v 0 -176 0
v -512 -176 0
v -528 -176 0
v -528 -160 0
v -512 -160 0
v -352 -176 0
v -368 -176 0
v -368 -160 0
v -352 -160 0
v -336 -176 0
v -352 -176 0
v -352 -160 0
v -336 -160 0
v -112 -176 0
v -128 -176 0
v -128 -160 0
v -112 -160 0
v 0 -176 0
v -16 -176 0
v -16 -160 0
v 0 -160 0
v -448 -160 0
v -464 -160 0
v -464 -144 0
v -448 -144 0
v -192 -160 0
v -208 -160 0
v -208 -144 0
v -192 -144 0
v 0 -160 0
v -16 -160 0
v -16 -144 0
v 0 -144 0
v -656 -144 0
v -672 -144 0
v -672 -128 0
v -656 -128 0
v -384 -144 0
v -400 -144 0
v -400 -128 0
v -384 -128 0
v 0 -144 0
v -16 -144 0
v -16 -128 0
v 0 -128 0
v -512 -128 0
v -528 -128 0
v -528 -112 0
v -512 -112 0
v -80 -128 0
v -96 -128 0
v -96 -112 0
v -80 -112 0
v 0 -128 0
v -16 -128 0
v -16 -112 0
v 0 -112 0
v -432 -112 0
v -448 -112 0
v -448 -96 0
v -432 -96 0
v -368 -112 0
v -384 -112 0
v -384 -96 0
v -368 -96 0
v -272 -112 0
v -288 -112 0
v -288 -96 0
v -272 -96 0
v -208 -112 0
v -224 -112 0
v -224 -96 0
v -208 -96 0
v 0 -112 0
v -16 -112 0
v -16 -96 0
v 0 -96 0
v -608 -96 0
v -624 -96 0
v -624 -80 0
v -608 -80 0
v -480 -96 0
v -496 -96 0
v -496 -80 0
v -480 -80 0
v -384 -96 0
v -400 -96 0
v -400 -80 0
v -384 -80 0
v -336 -96 0
v -352 -96 0
v -352 -80 0
v -336 -80 0
v -288 -96 0
v -304 -96 0
v -304 -80 0
v -288 -80 0
v -240 -96 0
v -256 -96 0
v -256 -80 0
v -240 -80 0
v -208 -96 0
v -224 -96 0
v -224 -80 0
v -208 -80 0
v -192 -96 0
v -208 -96 0
v -208 -80 0
v -192 -80 0
v -176 -96 0
v -192 -96 0
v -192 -80 0
v -176 -80 0
v -144 -96 0
v -160 -96 0
v -160 -80 0
v -144 -80 0
v -128 -96 0
v -144 -96 0
v -144 -80 0
v -128 -80 0
v -32 -96 0
v -48 -96 0
v -48 -80 0
v -32 -80 0
v -512 -80 0
v -528 -80 0
v -528 -64 0
v -512 -64 0
v -496 -80 0
v -512 -80 0
v -512 -64 0
v -496 -64 0
v -480 -80 0
v -496 -80 0
v -496 -64 0
v -480 -64 0
v -464 -80 0
v -480 -80 0
v -480 -64 0
v -464 -64 0
v -448 -80 0
v -464 -80 0
v -464 -64 0
v -448 -64 0
v -432 -80 0
v -448 -80 0
v -448 -64 0
v -432 -64 0
v -640 -64 0
v -656 -64 0
v -656 -48 0
v -640 -48 0
v -608 -64 0
v -624 -64 0
v -624 -48 0
v -608 -48 0
v -576 -64 0
v -592 -64 0
v -592 -48 0
v -576 -48 0
v -384 -64 0
v -400 -64 0
v -400 -48 0
v -384 -48 0
v -336 -64 0
v -352 -64 0
v -352 -48 0
v -336 -48 0
v -288 -64 0
v -304 -64 0
v -304 -48 0
v -288 -48 0
v -240 -64 0
v -256 -64 0
v -256 -48 0
v -240 -48 0
v -96 -64 0
v -112 -64 0
v -112 -48 0
v -96 -48 0
v -16 -64 0
v -32 -64 0
v -32 -48 0
v -16 -48 0
v -496 -48 0
v -512 -48 0
v -512 -32 0
v -496 -32 0
v -448 -48 0
v -464 -48 0
v -464 -32 0
v -448 -32 0

# Texture cooridinates (Count = 60)
vt 0.7308917 0.7157894
vt 0.7563694 0.7157894
vt 0.7563694 0.7494737
vt 0.7308917 0.7494737
vt 0.3789809 0.4652631
vt 0.4044586 0.4652631
vt 0.4044586 0.4989474
vt 0.3789809 0.4989474
vt 0.3789809 0.3221053
vt 0.4044586 0.3221053
vt 0.4044586 0.3557895
vt 0.3789809 0.3557895
vt 0.3519108 0.4652631
vt 0.3773885 0.4652631
vt 0.3773885 0.4989474
vt 0.3519108 0.4989474
vt 0.406051 0.4652631
vt 0.4315287 0.4652631
vt 0.4315287 0.4989474
vt 0.406051 0.4989474
vt 0.406051 0.5010526
vt 0.4315287 0.5010526
vt 0.4315287 0.5347369
vt 0.406051 0.5347369
vt 0.5414013 0.03578949
vt 0.566879 0.03578949
vt 0.566879 0.06947368
vt 0.5414013 0.06947368
vt 0.6767516 0.3578947
vt 0.7022293 0.3578947
vt 0.7022293 0.391579
vt 0.6767516 0.391579
vt 0.5143312 0.2863158
vt 0.5398089 0.2863158
vt 0.5398089 0.32
vt 0.5143312 0.32
vt 0.4601911 0.3578947
vt 0.4856688 0.3578947
vt 0.4856688 0.391579
vt 0.4601911 0.391579
vt 0.406051 0.3578947
vt 0.4315287 0.3578947
vt 0.4315287 0.391579
vt 0.406051 0.391579
vt 0.5143312 0.3578947
vt 0.5398089 0.3578947
vt 0.5398089 0.391579
vt 0.5143312 0.391579
vt 0.7850319 0.6084211
vt 0.8105096 0.6084211
vt 0.8105096 0.6421052
vt 0.7850319 0.6421052
vt 0.7579618 0.6084211
vt 0.7834395 0.6084211
vt 0.7834395 0.6421052
vt 0.7579618 0.6421052
vt 0.7308917 0.6084211
vt 0.7563694 0.6084211
vt 0.7563694 0.6421052
vt 0.7308917 0.6421052

# Normal
vn 0 0 -1

# Mesh description
g MainStreet_mesh_0004

# Faces
f 1/1/1 2/2/1 3/3/1 4/4/1
f 5/5/1 6/6/1 7/7/1 8/8/1
f 9/1/1 10/2/1 11/3/1 12/4/1
f 13/9/1 14/10/1 15/11/1 16/12/1
f 17/13/1 18/14/1 19/15/1 20/16/1
f 21/9/1 22/10/1 23/11/1 24/12/1
f 25/13/1 26/14/1 27/15/1 28/16/1
f 29/1/1 30/2/1 31/3/1 32/4/1
f 33/13/1 34/14/1 35/15/1 36/16/1
f 37/9/1 38/10/1 39/11/1 40/12/1
f 41/1/1 42/2/1 43/3/1 44/4/1
f 45/1/1 46/2/1 47/3/1 48/4/1
f 49/9/1 50/10/1 51/11/1 52/12/1
f 53/1/1 54/2/1 55/3/1 56/4/1
f 57/17/1 58/18/1 59/19/1 60/20/1
f 61/17/1 62/18/1 63/19/1 64/20/1
f 65/1/1 66/2/1 67/3/1 68/4/1
f 69/21/1 70/22/1 71/23/1 72/24/1
f 73/25/1 74/26/1 75/27/1 76/28/1
f 77/25/1 78/26/1 79/27/1 80/28/1
f 81/9/1 82/10/1 83/11/1 84/12/1
f 85/1/1 86/2/1 87/3/1 88/4/1
f 89/25/1 90/26/1 91/27/1 92/28/1
f 93/25/1 94/26/1 95/27/1 96/28/1
f 97/29/1 98/30/1 99/31/1 100/32/1
f 101/29/1 102/30/1 103/31/1 104/32/1
f 105/29/1 106/30/1 107/31/1 108/32/1
f 109/29/1 110/30/1 111/31/1 112/32/1
f 113/33/1 114/34/1 115/35/1 116/36/1
f 117/37/1 118/38/1 119/39/1 120/40/1
f 121/41/1 122/42/1 123/43/1 124/44/1
f 125/45/1 126/46/1 127/47/1 128/48/1
f 129/41/1 130/42/1 131/43/1 132/44/1
f 133/25/1 134/26/1 135/27/1 136/28/1
f 137/49/1 138/50/1 139/51/1 140/52/1
f 141/53/1 142/54/1 143/55/1 144/56/1
f 145/53/1 146/54/1 147/55/1 148/56/1
f 149/53/1 150/54/1 151/55/1 152/56/1
f 153/53/1 154/54/1 155/55/1 156/56/1
f 157/57/1 158/58/1 159/59/1 160/60/1
f 161/29/1 162/30/1 163/31/1 164/32/1
f 165/29/1 166/30/1 167/31/1 168/32/1
f 169/29/1 170/30/1 171/31/1 172/32/1
f 173/29/1 174/30/1 175/31/1 176/32/1
f 177/29/1 178/30/1 179/31/1 180/32/1
f 181/29/1 182/30/1 183/31/1 184/32/1
f 185/29/1 186/30/1 187/31/1 188/32/1
f 189/29/1 190/30/1 191/31/1 192/32/1
f 193/29/1 194/30/1 195/31/1 196/32/1
f 197/29/1 198/30/1 199/31/1 200/32/1
f 201/29/1 202/30/1 203/31/1 204/32/1

