# Tiled2Unity generated file. Do not modify by hand.
# Wavefront file for 'StartRoom_mesh_0005.obj'

# Vertices (Count = 64)
v -96 -208 0
v -112 -208 0
v -112 -192 0
v -96 -192 0
v -16 -208 0
v -32 -208 0
v -32 -192 0
v -16 -192 0
v -96 -176 0
v -112 -176 0
v -112 -160 0
v -96 -160 0
v -16 -176 0
v -32 -176 0
v -32 -160 0
v -16 -160 0
v -96 -144 0
v -112 -144 0
v -112 -128 0
v -96 -128 0
v -16 -144 0
v -32 -144 0
v -32 -128 0
v -16 -128 0
v -160 -128 0
v -176 -128 0
v -176 -112 0
v -160 -112 0
v -144 -128 0
v -160 -128 0
v -160 -112 0
v -144 -112 0
v -128 -128 0
v -144 -128 0
v -144 -112 0
v -128 -112 0
v -96 -112 0
v -112 -112 0
v -112 -96 0
v -96 -96 0
v -16 -112 0
v -32 -112 0
v -32 -96 0
v -16 -96 0
v -288 -96 0
v -304 -96 0
v -304 -80 0
v -288 -80 0
v -288 -64 0
v -304 -64 0
v -304 -48 0
v -288 -48 0
v -176 -48 0
v -192 -48 0
v -192 -32 0
v -176 -32 0
v -144 -48 0
v -160 -48 0
v -160 -32 0
v -144 -32 0
v -112 -48 0
v -128 -48 0
v -128 -32 0
v -112 -32 0

# Texture cooridinates (Count = 20)
vt 0.2809917 0.9372624
vt 0.2975207 0.9372624
vt 0.2975207 0.9676806
vt 0.2809917 0.9676806
vt 0.2809917 0.904943
vt 0.2975207 0.904943
vt 0.2975207 0.9353612
vt 0.2809917 0.9353612
vt 0.5268595 0.904943
vt 0.5433884 0.904943
vt 0.5433884 0.9353612
vt 0.5268595 0.9353612
vt 0.5444215 0.8403042
vt 0.5609504 0.8403042
vt 0.5609504 0.8707224
vt 0.5444215 0.8707224
vt 0.2809917 0.8726236
vt 0.2975207 0.8726236
vt 0.2975207 0.9030418
vt 0.2809917 0.9030418

# Normal
vn 0 0 -1

# Mesh description
g StartRoom_mesh_0005

# Faces
f 1/1/1 2/2/1 3/3/1 4/4/1
f 5/5/1 6/6/1 7/7/1 8/8/1
f 9/1/1 10/2/1 11/3/1 12/4/1
f 13/5/1 14/6/1 15/7/1 16/8/1
f 17/1/1 18/2/1 19/3/1 20/4/1
f 21/5/1 22/6/1 23/7/1 24/8/1
f 25/9/1 26/10/1 27/11/1 28/12/1
f 29/9/1 30/10/1 31/11/1 32/12/1
f 33/13/1 34/14/1 35/15/1 36/16/1
f 37/1/1 38/2/1 39/3/1 40/4/1
f 41/5/1 42/6/1 43/7/1 44/8/1
f 45/1/1 46/2/1 47/3/1 48/4/1
f 49/1/1 50/2/1 51/3/1 52/4/1
f 53/17/1 54/18/1 55/19/1 56/20/1
f 57/17/1 58/18/1 59/19/1 60/20/1
f 61/17/1 62/18/1 63/19/1 64/20/1

