# Tiled2Unity generated file. Do not modify by hand.
# Wavefront file for 'StartRoom_mesh_0004.obj'

# Vertices (Count = 72)
v -272 -192 0
v -288 -192 0
v -288 -176 0
v -272 -176 0
v -256 -192 0
v -272 -192 0
v -272 -176 0
v -256 -176 0
v -256 -176 0
v -272 -176 0
v -272 -160 0
v -256 -160 0
v -240 -176 0
v -256 -176 0
v -256 -160 0
v -240 -160 0
v -128 -176 0
v -144 -176 0
v -144 -160 0
v -128 -160 0
v -272 -160 0
v -288 -160 0
v -288 -144 0
v -272 -144 0
v -256 -160 0
v -272 -160 0
v -272 -144 0
v -256 -144 0
v -240 -160 0
v -256 -160 0
v -256 -144 0
v -240 -144 0
v -128 -160 0
v -144 -160 0
v -144 -144 0
v -128 -144 0
v -176 -144 0
v -192 -144 0
v -192 -128 0
v -176 -128 0
v -160 -144 0
v -176 -144 0
v -176 -128 0
v -160 -128 0
v -144 -144 0
v -160 -144 0
v -160 -128 0
v -144 -128 0
v -128 -144 0
v -144 -144 0
v -144 -128 0
v -128 -128 0
v -80 -48 0
v -96 -48 0
v -96 -32 0
v -80 -32 0
v -64 -48 0
v -80 -48 0
v -80 -32 0
v -64 -32 0
v -48 -48 0
v -64 -48 0
v -64 -32 0
v -48 -32 0
v -32 -48 0
v -48 -48 0
v -48 -32 0
v -32 -32 0
v -16 -48 0
v -32 -48 0
v -32 -32 0
v -16 -32 0

# Texture cooridinates (Count = 60)
vt 0.1113537 0.7245902
vt 0.1462882 0.7245902
vt 0.1462882 0.7770492
vt 0.1113537 0.7770492
vt 0.2227074 0.8918033
vt 0.2576419 0.8918033
vt 0.2576419 0.9442623
vt 0.2227074 0.9442623
vt 0.1855895 0.8918033
vt 0.220524 0.8918033
vt 0.220524 0.9442623
vt 0.1855895 0.9442623
vt 0.0742358 0.7245902
vt 0.1091703 0.7245902
vt 0.1091703 0.7770492
vt 0.0742358 0.7770492
vt 0.4454148 0.1114754
vt 0.4803493 0.1114754
vt 0.4803493 0.1639344
vt 0.4454148 0.1639344
vt 0.2227074 0.947541
vt 0.2576419 0.947541
vt 0.2576419 1
vt 0.2227074 1
vt 0.4454148 0.1672131
vt 0.4803493 0.1672131
vt 0.4803493 0.2196721
vt 0.4454148 0.2196721
vt 0.4082969 0
vt 0.4432314 0
vt 0.4432314 0.052459
vt 0.4082969 0.052459
vt 0.0371179 0
vt 0.0720524 0
vt 0.0720524 0.052459
vt 0.0371179 0.052459
vt 0.5196506 0.1672131
vt 0.5545852 0.1672131
vt 0.5545852 0.2196721
vt 0.5196506 0.2196721
vt 0.4454148 0.2229508
vt 0.4803493 0.2229508
vt 0.4803493 0.2754098
vt 0.4454148 0.2754098
vt 0.2598253 0.6131147
vt 0.2947598 0.6131147
vt 0.2947598 0.6655738
vt 0.2598253 0.6655738
vt 0.1855895 0.6131147
vt 0.220524 0.6131147
vt 0.220524 0.6655738
vt 0.1855895 0.6655738
vt 0.2227074 0.6131147
vt 0.2576419 0.6131147
vt 0.2576419 0.6655738
vt 0.2227074 0.6655738
vt 0.1484716 0.6131147
vt 0.1834061 0.6131147
vt 0.1834061 0.6655738
vt 0.1484716 0.6655738

# Normal
vn 0 0 -1

# Mesh description
g StartRoom_mesh_0004

# Faces
f 1/1/1 2/2/1 3/3/1 4/4/1
f 5/5/1 6/6/1 7/7/1 8/8/1
f 9/9/1 10/10/1 11/11/1 12/12/1
f 13/13/1 14/14/1 15/15/1 16/16/1
f 17/17/1 18/18/1 19/19/1 20/20/1
f 21/1/1 22/2/1 23/3/1 24/4/1
f 25/21/1 26/22/1 27/23/1 28/24/1
f 29/13/1 30/14/1 31/15/1 32/16/1
f 33/25/1 34/26/1 35/27/1 36/28/1
f 37/29/1 38/30/1 39/31/1 40/32/1
f 41/33/1 42/34/1 43/35/1 44/36/1
f 45/37/1 46/38/1 47/39/1 48/40/1
f 49/41/1 50/42/1 51/43/1 52/44/1
f 53/45/1 54/46/1 55/47/1 56/48/1
f 57/49/1 58/50/1 59/51/1 60/52/1
f 61/53/1 62/54/1 63/55/1 64/56/1
f 65/49/1 66/50/1 67/51/1 68/52/1
f 69/57/1 70/58/1 71/59/1 72/60/1

