# Tiled2Unity generated file. Do not modify by hand.
# Wavefront file for 'StartRoom_mesh_0002.obj'

# Vertices (Count = 32)
v -304 -224 0
v -320 -224 0
v -320 -208 0
v -304 -208 0
v 0 -224 0
v -16 -224 0
v -16 -208 0
v 0 -208 0
v -96 -192 0
v -112 -192 0
v -112 -176 0
v -96 -176 0
v -16 -128 0
v -32 -128 0
v -32 -112 0
v -16 -112 0
v -112 -112 0
v -128 -112 0
v -128 -96 0
v -112 -96 0
v -288 -48 0
v -304 -48 0
v -304 -32 0
v -288 -32 0
v -304 -16 0
v -320 -16 0
v -320 0 0
v -304 0 0
v 0 -16 0
v -16 -16 0
v -16 0 0
v 0 0 0

# Texture cooridinates (Count = 28)
vt 0.1353503 0.8589474
vt 0.160828 0.8589474
vt 0.160828 0.8926316
vt 0.1353503 0.8926316
vt 0.1082803 0.8589474
vt 0.133758 0.8589474
vt 0.133758 0.8926316
vt 0.1082803 0.8926316
vt 0.3789809 0.3578947
vt 0.4044586 0.3578947
vt 0.4044586 0.391579
vt 0.3789809 0.391579
vt 0.3519108 0.3578947
vt 0.3773885 0.3578947
vt 0.3773885 0.391579
vt 0.3519108 0.391579
vt 0.1082803 0.8947368
vt 0.133758 0.8947368
vt 0.133758 0.928421
vt 0.1082803 0.928421
vt 0.3789809 0.3936842
vt 0.4044586 0.3936842
vt 0.4044586 0.4273684
vt 0.3789809 0.4273684
vt 0.1353503 0.8947368
vt 0.160828 0.8947368
vt 0.160828 0.928421
vt 0.1353503 0.928421

# Normal
vn 0 0 -1

# Mesh description
g StartRoom_mesh_0002

# Faces
f 1/1/1 2/2/1 3/3/1 4/4/1
f 5/5/1 6/6/1 7/7/1 8/8/1
f 9/9/1 10/10/1 11/11/1 12/12/1
f 13/13/1 14/14/1 15/15/1 16/16/1
f 17/17/1 18/18/1 19/19/1 20/20/1
f 21/21/1 22/22/1 23/23/1 24/24/1
f 25/25/1 26/26/1 27/27/1 28/28/1
f 29/17/1 30/18/1 31/19/1 32/20/1

