# Tiled2Unity generated file. Do not modify by hand.
# Wavefront file for 'StartRoom_mesh_0003.obj'

# Vertices (Count = 28)
v -128 -208 0
v -144 -208 0
v -144 -192 0
v -128 -192 0
v -96 -48 0
v -112 -48 0
v -112 -32 0
v -96 -32 0
v -288 -32 0
v -304 -32 0
v -304 -16 0
v -288 -16 0
v -272 -32 0
v -288 -32 0
v -288 -16 0
v -272 -16 0
v -256 -32 0
v -272 -32 0
v -272 -16 0
v -256 -16 0
v -240 -32 0
v -256 -32 0
v -256 -16 0
v -240 -16 0
v -224 -32 0
v -240 -32 0
v -240 -16 0
v -224 -16 0

# Texture cooridinates (Count = 24)
vt 0.4082969 0.4459016
vt 0.4432314 0.4459016
vt 0.4432314 0.4983606
vt 0.4082969 0.4983606
vt 0.1484716 0.5016394
vt 0.1834061 0.5016394
vt 0.1834061 0.5540984
vt 0.1484716 0.5540984
vt 0.1113537 0.4459016
vt 0.1462882 0.4459016
vt 0.1462882 0.4983606
vt 0.1113537 0.4983606
vt 0.0742358 0.4459016
vt 0.1091703 0.4459016
vt 0.1091703 0.4983606
vt 0.0742358 0.4983606
vt 0.0371179 0.4459016
vt 0.0720524 0.4459016
vt 0.0720524 0.4983606
vt 0.0371179 0.4983606
vt 0 0.5016394
vt 0.0349345 0.5016394
vt 0.0349345 0.5540984
vt 0 0.5540984

# Normal
vn 0 0 -1

# Mesh description
g StartRoom_mesh_0003

# Faces
f 1/1/1 2/2/1 3/3/1 4/4/1
f 5/1/1 6/2/1 7/3/1 8/4/1
f 9/5/1 10/6/1 11/7/1 12/8/1
f 13/9/1 14/10/1 15/11/1 16/12/1
f 17/13/1 18/14/1 19/15/1 20/16/1
f 21/17/1 22/18/1 23/19/1 24/20/1
f 25/21/1 26/22/1 27/23/1 28/24/1

